<svg width="24" height="24" viewBox="0 0 24 24" fill="none" xmlns="http://www.w3.org/2000/svg">
  <path
    d="M6.6 3H10.2V4.8H8.4V6.6H6.6V3ZM6.6 12H4.8V6.6H6.6V12ZM8.4 13.8H6.6V12H8.4V13.8ZM10.2 15.6V13.8H8.4V15.6H4.8V13.8H3V15.6H4.8V17.4H8.4V21H10.2V17.4H12V15.6H10.2ZM10.2 15.6V17.4H8.4V15.6H10.2ZM15.6 4.8V6.6H10.2V4.8H15.6ZM19.2 6.6H17.4V4.8H15.6V3H19.2V6.6ZM19.2 12V6.6H21V12H19.2ZM17.4 13.8V12H19.2V13.8H17.4ZM15.6 15.6V13.8H17.4V15.6H15.6ZM15.6 17.4H13.8V15.6H15.6V17.4ZM15.6 17.4H17.4V21H15.6V17.4Z"
    fill="currentcolor" />
</svg>