<svg width="24" height="24" viewBox="0 0 24 24" fill="none" xmlns="http://www.w3.org/2000/svg">
  <path d="M5.84961 6.7749H6.72461V7.6499H5.84961V6.7749Z" fill="currentcolor" />
  <path d="M4.97461 4.1499H5.84961V5.0249H4.97461V4.1499Z" fill="currentcolor" />
  <path d="M4.09961 5.0249H4.97461V5.8999H4.09961V5.0249Z" fill="currentcolor" />
  <path d="M4.97461 5.0249H5.84961V5.8999H4.97461V5.0249Z" fill="currentcolor" />
  <path d="M4.97461 6.7749H5.84961V7.6499H4.97461V6.7749Z" fill="currentcolor" />
  <path d="M6.72461 5.8999H7.59961V6.7749H6.72461V5.8999Z" fill="currentcolor" />
  <path d="M5.84961 5.8999H6.72461V6.7749H5.84961V5.8999Z" fill="currentcolor" />
  <path d="M4.97461 5.8999H5.84961V6.7749H4.97461V5.8999Z" fill="currentcolor" />
  <path d="M4.09961 5.8999H4.97461V6.7749H4.09961V5.8999Z" fill="currentcolor" />
  <path d="M6.72461 5.0249H7.59961V5.8999H6.72461V5.0249Z" fill="currentcolor" />
  <path d="M5.84961 5.0249H6.72461V5.8999H5.84961V5.0249Z" fill="currentcolor" />
  <path d="M5.84961 4.1499H6.72461V5.0249H5.84961V4.1499Z" fill="currentcolor" />
  <path d="M4.19971 9.1499H7.49971V19.8499H4.19971V9.1499Z" fill="currentcolor" />
  <path
    d="M12.1992 10.1499H13.249V9.1499H18.0996V10.1499H19.0996V11.1499H19.9004V19.8501H16.5996V13.3003H15.6992V12.3003H13.6992V13.3003H12.5996V19.8501H9.09961V9.1499H12.1992V10.1499Z"
    fill="currentcolor" />
  <path d="M4.19971 9.1499H7.49971V19.8499H4.19971V9.1499Z" fill="currentcolor" />
</svg>