<svg width="24" height="24" viewBox="0 0 24 24" fill="none" xmlns="http://www.w3.org/2000/svg">
  <path
    d="M5.45455 6.90909H6.90909V5.45455H9.81818V4H4V5.45455H5.45455V6.90909ZM4 20H5.45455V18.5455H4V20ZM5.45455 18.5455H6.90909V17.0909H5.45455V18.5455ZM6.90909 17.0909H8.36364V15.6364H6.90909V17.0909ZM8.36364 15.6364H9.81818V14.1818H8.36364V15.6364ZM12.7273 18.5455H14.1818V15.6364H12.7273V18.5455ZM11.2727 15.6364H12.7273V14.1818H11.2727V15.6364ZM9.81818 14.1818H11.2727V11.2727H9.81818V14.1818ZM8.36364 11.2727H9.81818V9.81818H8.36364V11.2727ZM14.1818 20H20V18.5455H18.5455V17.0909H17.0909V18.5455H14.1818V20ZM6.90909 9.81818H8.36364V6.90909H6.90909V9.81818ZM15.6364 17.0909H17.0909V14.1818H15.6364V17.0909ZM14.1818 14.1818H15.6364V12.7273H14.1818V14.1818ZM12.7273 12.7273H14.1818V9.81818H12.7273V12.7273ZM11.2727 9.81818H12.7273V8.36364H11.2727V9.81818ZM9.81818 8.36364H11.2727V5.45455H9.81818V8.36364ZM14.1818 9.81818H15.6364V8.36364H14.1818V9.81818ZM15.6364 8.36364H17.0909V6.90909H15.6364V8.36364ZM17.0909 6.90909H18.5455V5.45455H17.0909V6.90909ZM18.5455 5.45455H20V4H18.5455V5.45455Z"
    fill="currentcolor" />
</svg>